<svg width="128" height="125" viewBox="0 0 128 125" fill="none" xmlns="http://www.w3.org/2000/svg">
<g clip-path="url(#clip0_1207_150)">
<path d="M104.647 42.8826C103.332 42.4363 101.97 42.014 100.567 41.6146C100.798 40.6866 101.009 39.7706 101.197 38.8701C104.286 24.0844 102.266 12.173 95.3713 8.25122C88.7598 4.49077 77.9471 8.41164 67.0268 17.785C65.9767 18.6864 64.9236 19.6407 63.871 20.6408C63.1697 19.9791 62.4695 19.3396 61.771 18.728C50.3263 8.70534 38.8546 4.48165 31.9663 8.41475C25.361 12.1861 23.405 23.384 26.1849 37.3965C26.4533 38.75 26.7671 40.1321 27.122 41.5374C25.4984 41.992 23.931 42.4766 22.4313 42.9921C9.01354 47.6061 0.444336 54.8372 0.444336 62.3379C0.444336 70.0846 9.64339 77.8547 23.619 82.5661C24.722 82.9379 25.8664 83.2895 27.0457 83.6232C26.6629 85.1431 26.3299 86.6325 26.0504 88.0852C23.3998 101.854 25.4698 112.788 32.0574 116.535C38.8618 120.406 50.2816 116.427 61.4015 106.84C62.2804 106.083 63.1625 105.279 64.0461 104.437C65.1914 105.524 66.3349 106.554 67.4723 107.52C78.2433 116.661 88.8814 120.353 95.4629 116.595C102.261 112.714 104.47 100.968 101.602 86.6788C101.383 85.5874 101.128 84.4725 100.841 83.3377C101.643 83.1039 102.431 82.8625 103.198 82.6115C117.727 77.8636 127.18 70.1881 127.18 62.3379C127.18 54.8101 118.335 47.5302 104.647 42.8826ZM101.496 77.5428C100.803 77.769 100.092 77.9878 99.367 78.1998C97.763 73.1916 95.5983 67.8661 92.9492 62.3639C95.4771 56.9928 97.5582 51.7354 99.1172 46.7597C100.414 47.1297 101.672 47.5199 102.885 47.9318C114.612 51.9138 121.766 57.8014 121.766 62.3379C121.766 67.1701 114.04 73.443 101.496 77.5428ZM96.2904 87.7158C97.5586 94.0346 97.7398 99.7474 96.8997 104.213C96.1449 108.226 94.6269 110.902 92.75 111.973C88.7559 114.254 80.2147 111.29 71.0033 103.472C69.9473 102.575 68.8836 101.618 67.8166 100.606C71.3876 96.7535 74.9567 92.2753 78.44 87.3018C84.5668 86.7655 90.3551 85.8889 95.6044 84.6921C95.8629 85.7207 96.0925 86.7295 96.2904 87.7158ZM43.6515 111.579C39.7493 112.939 36.6414 112.978 34.7627 111.909C30.765 109.635 29.1031 100.857 31.37 89.0811C31.6297 87.7325 31.9388 86.3472 32.295 84.9313C37.4867 86.0636 43.2326 86.8783 49.374 87.3694C52.8808 92.2361 56.553 96.7094 60.2535 100.626C59.445 101.396 58.6396 102.129 57.8388 102.82C52.9216 107.059 47.9941 110.067 43.6515 111.579ZM25.3701 77.5132C19.1903 75.4299 14.0868 72.7223 10.5886 69.7678C7.44525 67.1127 5.85824 64.4768 5.85824 62.3379C5.85824 57.7862 12.7385 51.9806 24.2135 48.0346C25.6058 47.5558 27.0633 47.1045 28.5759 46.6807C30.1618 51.7688 32.2422 57.0885 34.7528 62.4678C32.2097 67.9271 30.0998 73.3315 28.4983 78.4793C27.42 78.1735 26.3753 77.8518 25.3701 77.5132ZM31.4982 36.371C29.1164 24.3654 30.6982 15.3089 34.6788 13.0363C38.9187 10.6153 48.2944 14.0671 58.1761 22.7212C58.8077 23.2743 59.4418 23.8532 60.0778 24.4522C56.3955 28.3519 52.757 32.7917 49.2813 37.6297C43.3208 38.1746 37.6152 39.0499 32.3694 40.222C32.0396 38.9135 31.7475 37.6279 31.4982 36.371ZM86.1664 49.6851C84.9124 47.5486 83.6249 45.4627 82.3125 43.4338C86.3561 43.9379 90.2304 44.6072 93.8687 45.4262C92.7764 48.879 91.415 52.489 89.8124 56.1898C88.6628 54.0371 87.4469 51.8667 86.1664 49.6851ZM63.8728 28.2685C66.3701 30.9369 68.871 33.9162 71.3308 37.1486C68.852 37.0332 66.3426 36.9731 63.8124 36.9731C61.3061 36.9731 58.8152 37.0318 56.3517 37.1453C58.814 33.9429 61.3366 30.9676 63.8728 28.2685ZM41.4365 49.722C40.1838 51.8645 38.9904 54.0231 37.8589 56.1858C36.2822 52.4979 34.9334 48.8714 33.8317 45.3697C37.4476 44.5716 41.3036 43.919 45.3216 43.4244C43.9906 45.4721 42.6926 47.5738 41.4365 49.722ZM45.4373 81.6323C41.286 81.1755 37.3721 80.5565 33.757 79.7804C34.8764 76.2162 36.2549 72.5123 37.865 68.745C38.9995 70.9061 40.1976 73.0657 41.4579 75.2128C42.7417 77.4001 44.072 79.5428 45.4373 81.6323ZM64.0226 96.7837C61.4566 94.053 58.897 91.0324 56.3973 87.7832C58.8239 87.8771 61.298 87.9252 63.8124 87.9252C66.3956 87.9252 68.9493 87.8678 71.4628 87.7574C68.9948 91.0651 66.503 94.0904 64.0226 96.7837ZM89.864 68.5529C91.558 72.361 92.986 76.0456 94.1198 79.549C90.4452 80.3758 86.4777 81.0418 82.2976 81.5366C83.6132 79.4803 84.9119 77.3585 86.1881 75.176C87.4791 72.968 88.705 70.7566 89.864 68.5529ZM81.4983 72.5083C79.5172 75.8963 77.4833 79.1305 75.4185 82.1834C71.6577 82.4486 67.7724 82.5852 63.8124 82.5852C59.8684 82.5852 56.0321 82.4644 52.3378 82.2279C50.1898 79.135 48.1117 75.8912 46.1432 72.5374C44.1799 69.1928 42.3734 65.82 40.736 62.466C42.3729 59.1043 44.1751 55.7277 46.1271 52.3891L46.1267 52.3898C48.0839 49.0423 50.1438 45.8143 52.272 42.7407C56.0411 42.4597 59.9061 42.313 63.8122 42.313C67.7358 42.313 71.606 42.4608 75.374 42.7442C77.4697 45.7954 79.5156 49.0129 81.4805 52.3608C83.4677 55.7464 85.2932 59.1005 86.944 62.3902C85.2981 65.7363 83.4767 69.1243 81.4983 72.5083ZM92.667 12.8774C96.911 15.2913 98.5614 25.0265 95.8949 37.7923C95.7248 38.6069 95.5333 39.4366 95.3253 40.2774C90.0673 39.0808 84.3576 38.1904 78.3798 37.6372C74.8974 32.7461 71.2886 28.2994 67.6663 24.4498C68.6402 23.5257 69.6127 22.6446 70.5812 21.8132C79.9377 13.7821 88.6826 10.6113 92.667 12.8774ZM63.8124 51.1758C70.0625 51.1758 75.1295 56.1731 75.1295 62.3379C75.1295 68.5024 70.0625 73.5 63.8124 73.5C57.5622 73.5 52.4953 68.5024 52.4953 62.3379C52.4953 56.1731 57.5622 51.1758 63.8124 51.1758Z" fill="#00D8FF"/>
</g>
<defs>
<clipPath id="clip0_1207_150">
<rect width="126.736" height="125" fill="white" transform="translate(0.444336)"/>
</clipPath>
</defs>
</svg>
